<svg width="38" height="38" viewBox="0 0 38 38" fill="none" xmlns="http://www.w3.org/2000/svg">
<rect width="38" height="38" rx="8" fill="#181818"/>
<path d="M24.2632 10.5789H26.1063C27.7053 10.5789 29 11.8747 29 13.4761V26.1026C29 27.7029 27.7047 29 26.1063 29H11.8937C10.2947 29 9 27.7042 9 26.1029V13.4763C9 11.8761 10.2953 10.5789 11.8937 10.5789H13.7368V9.78947C13.7368 9.58009 13.82 9.37929 13.9681 9.23123C14.1161 9.08318 14.3169 9 14.5263 9C14.7357 9 14.9365 9.08318 15.0846 9.23123C15.2326 9.37929 15.3158 9.58009 15.3158 9.78947V10.5789H22.6842V9.78947C22.6842 9.58009 22.7674 9.37929 22.9154 9.23123C23.0635 9.08318 23.2643 9 23.4737 9C23.6831 9 23.8839 9.08318 24.0319 9.23123C24.18 9.37929 24.2632 9.58009 24.2632 9.78947V10.5789ZM24.2632 12.1579V12.9474C24.2632 13.1568 24.18 13.3576 24.0319 13.5056C23.8839 13.6537 23.6831 13.7368 23.4737 13.7368C23.2643 13.7368 23.0635 13.6537 22.9154 13.5056C22.7674 13.3576 22.6842 13.1568 22.6842 12.9474V12.1579H15.3158V12.9474C15.3158 13.1568 15.2326 13.3576 15.0846 13.5056C14.9365 13.6537 14.7357 13.7368 14.5263 13.7368C14.3169 13.7368 14.1161 13.6537 13.9681 13.5056C13.82 13.3576 13.7368 13.1568 13.7368 12.9474V12.1579H11.8937C11.7208 12.1581 11.5497 12.1924 11.39 12.2587C11.2304 12.3251 11.0854 12.4222 10.9633 12.5446C10.8412 12.667 10.7444 12.8123 10.6785 12.9721C10.6125 13.1319 10.5787 13.3032 10.5789 13.4761V26.1026C10.5785 26.2756 10.6122 26.4469 10.678 26.6068C10.7439 26.7668 10.8407 26.9121 10.9628 27.0346C11.0849 27.1571 11.23 27.2542 11.3897 27.3206C11.5495 27.3869 11.7207 27.421 11.8937 27.4211H26.1063C26.2792 27.4208 26.4503 27.3866 26.61 27.3202C26.7696 27.2539 26.9146 27.1567 27.0367 27.0343C27.1588 26.9119 27.2556 26.7666 27.3215 26.6068C27.3875 26.447 27.4213 26.2758 27.4211 26.1029V13.4763C27.4215 13.3034 27.3878 13.132 27.322 12.9721C27.2561 12.8122 27.1593 12.6668 27.0372 12.5444C26.9151 12.4219 26.77 12.3247 26.6103 12.2584C26.4505 12.1921 26.2793 12.1579 26.1063 12.1579H24.2632ZM24 17.6842C24.2094 17.6842 24.4102 17.7674 24.5582 17.9154C24.7063 18.0635 24.7895 18.2643 24.7895 18.4737C24.7895 18.6831 24.7063 18.8839 24.5582 19.0319C24.4102 19.18 24.2094 19.2632 24 19.2632H14C13.7906 19.2632 13.5898 19.18 13.4418 19.0319C13.2937 18.8839 13.2105 18.6831 13.2105 18.4737C13.2105 18.2643 13.2937 18.0635 13.4418 17.9154C13.5898 17.7674 13.7906 17.6842 14 17.6842H24ZM20.8421 21.6316C21.0515 21.6316 21.2523 21.7148 21.4003 21.8628C21.5484 22.0109 21.6316 22.2117 21.6316 22.4211C21.6316 22.6304 21.5484 22.8312 21.4003 22.9793C21.2523 23.1273 21.0515 23.2105 20.8421 23.2105H14C13.7906 23.2105 13.5898 23.1273 13.4418 22.9793C13.2937 22.8312 13.2105 22.6304 13.2105 22.4211C13.2105 22.2117 13.2937 22.0109 13.4418 21.8628C13.5898 21.7148 13.7906 21.6316 14 21.6316H20.8421Z" fill="white"/>
</svg>
