<svg width="202" height="54" viewBox="0 0 202 54" fill="none" xmlns="http://www.w3.org/2000/svg">
<path d="M29.9895 31.1938H37.1635V8.40173H0V45.5888H22.7921V38.3913H28.79V45.6029H37.187V37.1917H29.9895V31.1938ZM28.7711 29.9942H21.5925V37.2105H8.42059V16.7988H28.79L28.7711 29.9942Z" fill="#2746AE"/>
<path d="M106.603 45.4336C116.811 45.4336 125.086 37.1585 125.086 26.9506C125.086 16.7428 116.811 8.46765 106.603 8.46765C96.395 8.46765 88.1199 16.7428 88.1199 26.9506C88.1199 37.1585 96.395 45.4336 106.603 45.4336Z" fill="#526598"/>
<path d="M106.603 39.8872C113.748 39.8872 119.54 34.0953 119.54 26.9506C119.54 19.8059 113.748 14.0139 106.603 14.0139C99.4582 14.0139 93.6663 19.8059 93.6663 26.9506C93.6663 34.0953 99.4582 39.8872 106.603 39.8872Z" fill="#1C315D"/>
<path d="M106.603 34.3926C110.713 34.3926 114.045 31.0607 114.045 26.9505C114.045 22.8404 110.713 19.5084 106.603 19.5084C102.493 19.5084 99.1608 22.8404 99.1608 26.9505C99.1608 31.0607 102.493 34.3926 106.603 34.3926Z" fill="#E2464E"/>
<path d="M137.67 27.5339H133.775L133.05 29.5803H130.698L134.49 19.5038H137.091L140.854 29.5803H138.408L137.67 27.5339ZM134.513 25.4876H136.959L135.75 22.0064L134.513 25.4876Z" fill="#040000"/>
<path d="M141.932 29.5803V19.5038H144.091V29.5803H141.932Z" fill="#040000"/>
<path d="M145.789 29.5803V19.5038H147.948V29.5803H145.789Z" fill="#040000"/>
<path d="M159.474 29.5897V19.5179H161.718V27.4446H166.069V29.5897H159.474Z" fill="#040000"/>
<path d="M169.179 25.5111L170.839 25.2571C171.225 25.2007 171.352 25.0172 171.352 24.7867C171.352 24.3774 170.999 24.0199 170.317 24.0199C170.019 24.0003 169.726 24.0983 169.5 24.2927C169.274 24.4871 169.133 24.7624 169.108 25.0595L167.226 24.6738C167.311 23.6671 168.252 22.3217 170.326 22.3217C172.613 22.3217 173.45 23.6012 173.45 25.0501V29.5897H171.517V28.7947C171.302 29.1201 171.006 29.3832 170.657 29.5575C170.309 29.7318 169.92 29.811 169.531 29.7873C167.979 29.7873 167.085 28.7665 167.085 27.6422C167.09 26.3955 168.012 25.6852 169.179 25.5111ZM171.352 26.8142V26.5037L170.016 26.7154C169.546 26.786 169.221 26.9977 169.221 27.4963C169.221 27.868 169.461 28.2208 170.058 28.2208C170.656 28.2208 171.352 27.915 171.352 26.8142Z" fill="#040000"/>
<path d="M175.068 29.5897V19.485H177.185V23.1966C177.441 22.911 177.757 22.6873 178.112 22.5422C178.466 22.3971 178.849 22.3346 179.232 22.3593C181.278 22.3593 182.525 23.9211 182.525 26.038C182.525 28.1549 181.113 29.7449 179.156 29.7449C178.772 29.77 178.388 29.6968 178.04 29.5322C177.691 29.3676 177.391 29.117 177.166 28.8041V29.5897H175.068ZM178.761 24.3068C177.924 24.3068 177.157 24.8572 177.157 26.0521C177.135 26.2758 177.159 26.5017 177.23 26.7152C177.301 26.9287 177.415 27.125 177.566 27.2913C177.718 27.4576 177.902 27.5903 178.108 27.6807C178.314 27.7712 178.536 27.8173 178.761 27.8162C179.599 27.8162 180.351 27.2329 180.351 26.0521C180.351 24.8713 179.599 24.3068 178.761 24.3068Z" fill="#040000"/>
<path d="M190.329 27.5575C189.986 28.7806 188.866 29.8061 187.074 29.8061C186.58 29.8183 186.089 29.7286 185.632 29.5427C185.174 29.3568 184.76 29.0786 184.415 28.7255C184.07 28.3723 183.801 27.9519 183.625 27.4903C183.45 27.0287 183.371 26.536 183.395 26.0427C183.373 25.5649 183.448 25.0877 183.615 24.6395C183.782 24.1913 184.038 23.7814 184.367 23.4341C184.695 23.0868 185.091 22.8093 185.529 22.6182C185.968 22.4271 186.44 22.3262 186.918 22.3217C189.106 22.3217 190.456 23.6718 190.456 25.9439C190.458 26.1673 190.444 26.3906 190.414 26.6119H185.498C185.539 27.0016 185.729 27.3604 186.027 27.6142C186.326 27.8681 186.711 27.9977 187.102 27.9762C187.409 28.0016 187.715 27.9225 187.971 27.7517C188.228 27.5809 188.419 27.3284 188.513 27.0353L190.329 27.5575ZM188.367 25.2054C188.359 25.0322 188.315 24.8626 188.238 24.7071C188.161 24.5516 188.053 24.4136 187.921 24.3015C187.789 24.1895 187.635 24.1058 187.469 24.0558C187.303 24.0057 187.128 23.9903 186.956 24.0105C186.612 23.9904 186.274 24.1032 186.011 24.3257C185.749 24.5481 185.582 24.8631 185.545 25.2054H188.367Z" fill="#040000"/>
<path d="M191.848 29.5897V19.485H194.008V29.5897H191.848Z" fill="#040000"/>
<path d="M197.159 27.2846C197.168 27.4204 197.203 27.5531 197.264 27.6747C197.325 27.7963 197.41 27.9044 197.513 27.9923C197.617 28.0802 197.738 28.1462 197.868 28.1863C197.998 28.2263 198.134 28.2397 198.27 28.2255C198.825 28.2255 199.093 27.9291 199.093 27.6139C199.093 27.2987 198.924 27.1435 198.397 27.0306L197.578 26.8142C196.073 26.4896 195.475 25.6381 195.475 24.6408C195.475 23.3472 196.614 22.2887 198.19 22.2887C200.236 22.2887 200.946 23.5682 201.012 24.3915L199.22 24.7161C199.201 24.468 199.084 24.2377 198.895 24.0754C198.707 23.9132 198.461 23.8323 198.213 23.8505C198.123 23.8394 198.031 23.8465 197.943 23.8713C197.855 23.8962 197.773 23.9383 197.701 23.9953C197.63 24.0522 197.571 24.1228 197.527 24.203C197.483 24.2831 197.456 24.3712 197.446 24.4621C197.446 24.7584 197.686 24.9325 198.001 24.9889L198.942 25.1724C200.405 25.4688 201.116 26.3532 201.116 27.3881C201.116 28.5971 200.175 29.7778 198.293 29.7778C196.077 29.7778 195.367 28.3384 195.311 27.5574L197.159 27.2846Z" fill="#040000"/>
<path d="M156.289 25.4735V19.4944H153.645L149.411 25.1865V27.5386H154.191V29.5897H156.303V27.5386H157.968V25.4735H156.289ZM151.636 25.4735L154.177 22.077V25.4735H151.636Z" fill="#040000"/>
<path d="M131.549 33.3483H132.189V33.7341C132.039 33.8559 131.851 33.9194 131.658 33.9128C131.548 33.9233 131.437 33.9098 131.333 33.8731C131.228 33.8365 131.133 33.7777 131.054 33.7007C130.975 33.6238 130.914 33.5305 130.874 33.4274C130.834 33.3244 130.818 33.2139 130.825 33.1037C130.816 32.9892 130.831 32.874 130.868 32.7655C130.906 32.657 130.966 32.5575 131.044 32.4735C131.123 32.3894 131.218 32.3226 131.323 32.2772C131.429 32.2318 131.543 32.2089 131.658 32.2099C131.888 32.2128 132.108 32.2999 132.279 32.4545L132.307 32.4828L132.669 32.1158L132.66 32.0829C132.398 31.8279 132.047 31.6845 131.681 31.683C131.493 31.6721 131.305 31.7011 131.128 31.7682C130.952 31.8352 130.792 31.9388 130.659 32.0721C130.526 32.2054 130.422 32.3654 130.355 32.5416C130.288 32.7177 130.259 32.9061 130.27 33.0943C130.258 33.2799 130.286 33.4659 130.354 33.6392C130.421 33.8124 130.526 33.9687 130.661 34.0971C130.795 34.2254 130.957 34.3226 131.133 34.3818C131.309 34.441 131.496 34.4608 131.681 34.4397C131.88 34.4457 132.078 34.4065 132.26 34.325C132.441 34.2435 132.602 34.1219 132.73 33.9693V32.8262H131.549V33.3483Z" fill="#040000"/>
<path d="M134.546 31.7537H133.982V34.3927H135.859V33.8565H134.546V31.7537Z" fill="#040000"/>
<path d="M138.22 31.7019C138.036 31.6962 137.852 31.7292 137.681 31.7989C137.511 31.8685 137.357 31.9733 137.229 32.1063C137.101 32.2393 137.003 32.3977 136.94 32.5711C136.877 32.7446 136.852 32.9293 136.865 33.1132C136.865 33.4725 137.008 33.8171 137.262 34.0712C137.516 34.3253 137.861 34.468 138.22 34.468C138.579 34.468 138.924 34.3253 139.178 34.0712C139.432 33.8171 139.575 33.4725 139.575 33.1132C139.58 32.9272 139.548 32.7421 139.481 32.5685C139.414 32.3949 139.313 32.2363 139.184 32.1018C139.059 31.9732 138.909 31.8714 138.743 31.8026C138.578 31.7339 138.4 31.6996 138.22 31.7019ZM138.22 32.2288C138.324 32.2262 138.426 32.2453 138.522 32.285C138.618 32.3248 138.704 32.3841 138.775 32.4593C138.856 32.5472 138.918 32.6503 138.959 32.7626C138.999 32.8749 139.017 32.9941 139.01 33.1132C139.01 33.3228 138.927 33.5238 138.779 33.672C138.631 33.8203 138.43 33.9035 138.22 33.9035C138.01 33.9035 137.809 33.8203 137.661 33.672C137.513 33.5238 137.43 33.3228 137.43 33.1132C137.422 32.9943 137.439 32.8751 137.478 32.7627C137.518 32.6504 137.58 32.5472 137.66 32.4593C137.732 32.3838 137.819 32.3242 137.916 32.2845C138.012 32.2448 138.116 32.2258 138.22 32.2288Z" fill="#040000"/>
<path d="M142.675 33.0239C142.756 32.9752 142.824 32.9063 142.871 32.8239C142.918 32.7415 142.943 32.6483 142.943 32.5534C142.943 32.0548 142.609 31.7678 142.002 31.7678H140.751V34.4069H142.002C142.656 34.4069 143 34.1294 143 33.6119C143 33.4943 142.971 33.3784 142.914 33.2755C142.857 33.1725 142.775 33.0859 142.675 33.0239ZM142.021 32.7792H141.33V32.2806H142.021C142.303 32.2806 142.379 32.4546 142.379 32.5487C142.379 32.7369 142.186 32.7792 142.021 32.7792ZM141.33 33.2873H142.021C142.2 33.2873 142.454 33.3955 142.454 33.5931C142.454 33.7906 142.096 33.8565 142.021 33.8565H141.33V33.2873Z" fill="#040000"/>
<path d="M145.112 31.7537L143.95 34.3927H144.566L144.787 33.9223H146.062L146.274 34.3927H146.899L145.714 31.7537H145.112ZM145.832 33.3719H145.022L145.427 32.4311L145.832 33.3719Z" fill="#040000"/>
<path d="M148.536 31.7537H147.967V34.3927H149.849V33.8565H148.536V31.7537Z" fill="#040000"/>
<path d="M153.97 31.7489H152.723V34.388H153.292V33.6353H153.97C154.106 33.6422 154.243 33.6192 154.369 33.5681C154.496 33.5169 154.61 33.4387 154.704 33.339C154.865 33.1616 154.952 32.9294 154.948 32.6898C154.948 32.563 154.923 32.4375 154.873 32.3208C154.824 32.2041 154.751 32.0987 154.66 32.0108C154.568 31.9229 154.46 31.8545 154.341 31.8094C154.223 31.7644 154.096 31.7439 153.97 31.7489ZM154.285 32.9861C154.244 33.0282 154.195 33.0612 154.141 33.0831C154.087 33.1049 154.028 33.1152 153.97 33.1132H153.292V32.2993H153.97C154.024 32.296 154.079 32.3042 154.13 32.3231C154.182 32.3421 154.229 32.3716 154.268 32.4096C154.307 32.4476 154.338 32.4934 154.359 32.5441C154.38 32.5948 154.39 32.6492 154.388 32.7039C154.394 32.8057 154.362 32.9059 154.299 32.9861H154.285Z" fill="#040000"/>
<path d="M157.028 31.7537L155.847 34.3927H156.463L156.684 33.9223H157.959L158.171 34.3927H158.792L157.592 31.7537H157.028ZM157.724 33.3719H156.915L157.319 32.4311L157.724 33.3719Z" fill="#040000"/>
<path d="M161.624 33.6636C161.46 33.8193 161.243 33.9068 161.017 33.9082C160.906 33.9171 160.795 33.9022 160.691 33.8645C160.586 33.8268 160.491 33.7671 160.412 33.6896C160.332 33.612 160.271 33.5183 160.23 33.4148C160.19 33.3113 160.173 33.2004 160.179 33.0896C160.174 32.9742 160.192 32.8588 160.233 32.7505C160.273 32.6422 160.335 32.5432 160.415 32.4593C160.495 32.3829 160.589 32.3236 160.693 32.2848C160.796 32.246 160.906 32.2285 161.017 32.2335C161.233 32.2296 161.443 32.3106 161.6 32.4593L161.628 32.4875L162.014 32.1159L161.981 32.0876C161.718 31.8305 161.364 31.6865 160.996 31.6865C160.627 31.6865 160.274 31.8305 160.01 32.0876C159.753 32.357 159.612 32.7172 159.62 33.0896C159.61 33.2752 159.641 33.4605 159.709 33.6333C159.777 33.806 159.882 33.9621 160.016 34.0909C160.149 34.2198 160.309 34.3185 160.484 34.3803C160.659 34.4421 160.846 34.4656 161.031 34.4492C161.402 34.4551 161.76 34.3149 162.028 34.0587L162.061 34.0258L161.671 33.6306L161.624 33.6636Z" fill="#040000"/>
<path d="M165.368 31.7584L164.634 31.7537L163.726 32.7604V31.7537H163.157V34.3927H163.726V33.3296L164.733 34.3927H165.476L164.178 33.0332L165.368 31.7584Z" fill="#040000"/>
<path d="M167.386 31.7537L166.201 34.3927H166.822L167.038 33.9223H168.313L168.53 34.3927H169.15L167.97 31.7537H167.386ZM168.083 33.3719H167.273L167.678 32.4311L168.083 33.3719Z" fill="#040000"/>
<path d="M171.234 33.3483H171.888V33.7341C171.739 33.8559 171.55 33.9194 171.357 33.9128C171.247 33.9233 171.136 33.9098 171.032 33.8731C170.928 33.8365 170.833 33.7777 170.753 33.7007C170.674 33.6238 170.613 33.5305 170.573 33.4274C170.534 33.3244 170.517 33.2139 170.524 33.1037C170.515 32.9892 170.53 32.874 170.568 32.7655C170.605 32.657 170.665 32.5575 170.744 32.4735C170.822 32.3894 170.917 32.3226 171.022 32.2772C171.128 32.2318 171.242 32.2089 171.357 32.2099C171.586 32.2113 171.806 32.2986 171.973 32.4545L172.006 32.4828L172.368 32.1158L172.335 32.0829C172.073 31.8279 171.722 31.6845 171.357 31.683C171.169 31.6721 170.98 31.7011 170.804 31.7682C170.628 31.8352 170.468 31.9388 170.335 32.0721C170.201 32.2054 170.098 32.3654 170.031 32.5416C169.964 32.7177 169.935 32.9061 169.945 33.0943C169.933 33.2799 169.962 33.4659 170.03 33.6392C170.097 33.8124 170.202 33.9687 170.336 34.0971C170.471 34.2254 170.632 34.3226 170.809 34.3818C170.985 34.441 171.172 34.4608 171.357 34.4397C171.556 34.4457 171.754 34.4065 171.935 34.325C172.117 34.2435 172.278 34.1219 172.406 33.9693V32.8262H171.234V33.3483Z" fill="#040000"/>
<path d="M174.255 31.7537H173.69V34.3927H174.255V31.7537Z" fill="#040000"/>
<path d="M177.242 33.2496L176.056 31.7536H175.6V34.3927H176.169V32.7556L177.444 34.3927H177.811V31.7489H177.242V33.2496Z" fill="#040000"/>
<path d="M180.276 33.3483H180.93V33.7341C180.779 33.8544 180.591 33.9177 180.398 33.9128C180.288 33.9233 180.177 33.9098 180.073 33.8731C179.969 33.8365 179.874 33.7777 179.795 33.7007C179.716 33.6238 179.654 33.5305 179.615 33.4274C179.575 33.3244 179.558 33.2139 179.566 33.1037C179.556 32.9892 179.571 32.874 179.609 32.7655C179.647 32.657 179.707 32.5575 179.785 32.4735C179.863 32.3894 179.958 32.3226 180.064 32.2772C180.17 32.2318 180.283 32.2089 180.398 32.2099C180.627 32.214 180.846 32.3009 181.015 32.4545L181.047 32.4828L181.405 32.1158L181.377 32.0829C181.115 31.8279 180.764 31.6845 180.398 31.683C180.21 31.6721 180.022 31.7011 179.846 31.7682C179.669 31.8352 179.509 31.9388 179.376 32.0721C179.243 32.2054 179.139 32.3654 179.072 32.5416C179.005 32.7177 178.976 32.9061 178.987 33.0943C178.975 33.2799 179.003 33.4659 179.071 33.6392C179.139 33.8124 179.243 33.9687 179.378 34.0971C179.513 34.2254 179.674 34.3226 179.85 34.3818C180.026 34.441 180.213 34.4608 180.398 34.4397C180.597 34.4457 180.795 34.4065 180.977 34.325C181.159 34.2435 181.319 34.1219 181.447 33.9693V32.8262H180.267L180.276 33.3483Z" fill="#040000"/>
<path d="M185.559 33.3484H186.213V33.7341C186.062 33.8545 185.874 33.9178 185.681 33.9129C185.571 33.9234 185.46 33.9098 185.356 33.8732C185.252 33.8366 185.157 33.7777 185.078 33.7008C184.999 33.6238 184.937 33.5306 184.897 33.4275C184.858 33.3244 184.841 33.214 184.848 33.1038C184.839 32.9891 184.853 32.8736 184.89 32.7648C184.928 32.6559 184.988 32.5562 185.066 32.472C185.145 32.3877 185.24 32.3209 185.346 32.2758C185.452 32.2306 185.566 32.2082 185.681 32.21C185.907 32.2176 186.122 32.3061 186.288 32.4593L186.321 32.4875L186.678 32.1206L186.65 32.0877C186.388 31.8326 186.037 31.6893 185.672 31.6878C185.484 31.6769 185.295 31.7059 185.119 31.7729C184.943 31.84 184.783 31.9436 184.649 32.0769C184.516 32.2102 184.413 32.3701 184.346 32.5463C184.279 32.7225 184.249 32.9109 184.26 33.0991C184.248 33.2846 184.277 33.4706 184.344 33.6439C184.412 33.8172 184.517 33.9735 184.651 34.1018C184.786 34.2302 184.947 34.3274 185.123 34.3866C185.3 34.4458 185.487 34.4655 185.672 34.4445C185.871 34.4505 186.069 34.4112 186.25 34.3298C186.432 34.2483 186.593 34.1267 186.721 33.9741V32.8262H185.54L185.559 33.3484Z" fill="#040000"/>
<path d="M190.178 32.6427C190.178 32.5216 190.153 32.4019 190.105 32.2909C190.057 32.1798 189.987 32.0796 189.899 31.9965C189.811 31.9134 189.707 31.849 189.593 31.8072C189.479 31.7654 189.358 31.7472 189.238 31.7536H187.982V34.3973H188.551V33.5412H188.951L189.52 34.3926H190.235L189.595 33.4518C189.77 33.403 189.922 33.2963 190.028 33.1493C190.134 33.0023 190.187 32.8237 190.178 32.6427ZM189.609 32.6427C189.611 32.6937 189.602 32.7446 189.582 32.7917C189.562 32.8389 189.533 32.8813 189.495 32.9161C189.458 32.9508 189.413 32.9772 189.365 32.9933C189.316 33.0094 189.265 33.015 189.214 33.0096H188.527V32.2898H189.214C189.264 32.2845 189.315 32.2899 189.364 32.3058C189.412 32.3216 189.456 32.3476 189.493 32.3818C189.531 32.4161 189.56 32.4579 189.58 32.5045C189.6 32.5511 189.61 32.6014 189.609 32.6521V32.6427Z" fill="#040000"/>
<path d="M192.601 31.7019C192.417 31.6962 192.233 31.7292 192.062 31.7989C191.892 31.8685 191.737 31.9733 191.61 32.1063C191.482 32.2393 191.384 32.3977 191.321 32.5711C191.258 32.7446 191.233 32.9293 191.246 33.1132C191.235 33.2975 191.262 33.4821 191.325 33.6557C191.388 33.8292 191.486 33.988 191.613 34.1224C191.74 34.2567 191.892 34.3638 192.062 34.4369C192.231 34.5101 192.414 34.5478 192.599 34.5478C192.783 34.5478 192.966 34.5101 193.136 34.4369C193.305 34.3638 193.458 34.2567 193.584 34.1224C193.711 33.988 193.809 33.8292 193.872 33.6557C193.935 33.4821 193.962 33.2975 193.951 33.1132C193.957 32.9275 193.925 32.7426 193.859 32.569C193.793 32.3955 193.693 32.2367 193.565 32.1018C193.44 31.9736 193.29 31.8721 193.124 31.8034C192.958 31.7347 192.78 31.7002 192.601 31.7019ZM192.601 32.2288C192.703 32.2243 192.805 32.2408 192.9 32.2772C192.996 32.3136 193.083 32.3692 193.156 32.4405C193.315 32.6205 193.399 32.8544 193.391 33.0944C193.4 33.2036 193.386 33.3134 193.349 33.4169C193.313 33.5203 193.256 33.6152 193.182 33.6956C193.108 33.776 193.017 33.8401 192.917 33.884C192.817 33.9279 192.708 33.9505 192.599 33.9505C192.489 33.9505 192.381 33.9279 192.28 33.884C192.18 33.8401 192.09 33.776 192.015 33.6956C191.941 33.6152 191.884 33.5203 191.848 33.4169C191.812 33.3134 191.798 33.2036 191.806 33.0944C191.8 32.9753 191.818 32.8562 191.859 32.7441C191.899 32.6319 191.961 32.5287 192.041 32.4405C192.115 32.3683 192.203 32.3123 192.299 32.2758C192.395 32.2394 192.498 32.2234 192.601 32.2288Z" fill="#040000"/>
<path d="M196.92 33.2637C196.92 33.6823 196.713 33.9223 196.346 33.9223C196.259 33.9287 196.173 33.9158 196.092 33.8844C196.011 33.8529 195.939 33.8038 195.88 33.7406C195.821 33.6774 195.776 33.6018 195.75 33.5192C195.724 33.4367 195.717 33.3493 195.729 33.2637V31.7583H195.165V33.2637C195.153 33.4214 195.175 33.5798 195.23 33.7281C195.285 33.8764 195.371 34.0112 195.483 34.1232C195.594 34.2353 195.729 34.322 195.877 34.3774C196.025 34.4328 196.183 34.4557 196.341 34.4444C196.497 34.4546 196.654 34.4308 196.8 34.3746C196.946 34.3184 197.078 34.2312 197.187 34.1189C197.296 34.0067 197.38 33.8721 197.432 33.7244C197.484 33.5767 197.503 33.4195 197.489 33.2637V31.7583H196.92V33.2637Z" fill="#040000"/>
<path d="M200.062 31.7489H198.815V34.388H199.385V33.6353H200.062C200.189 33.6404 200.315 33.6198 200.434 33.5748C200.552 33.5298 200.66 33.4613 200.752 33.3734C200.843 33.2855 200.916 33.1801 200.965 33.0634C201.015 32.9468 201.041 32.8213 201.04 32.6945C201.041 32.5673 201.016 32.4413 200.967 32.3241C200.917 32.2068 200.845 32.1008 200.753 32.0125C200.662 31.9241 200.553 31.8552 200.435 31.8099C200.316 31.7646 200.189 31.7438 200.062 31.7489ZM199.385 32.2993H200.062C200.116 32.2967 200.17 32.3053 200.221 32.3246C200.272 32.3439 200.318 32.3734 200.357 32.4114C200.396 32.4494 200.427 32.4949 200.447 32.5453C200.467 32.5956 200.477 32.6496 200.476 32.7039C200.477 32.8075 200.44 32.9079 200.372 32.9861C200.332 33.0276 200.284 33.0602 200.23 33.0821C200.177 33.104 200.12 33.1145 200.062 33.1132H199.385V32.2993Z" fill="#040000"/>
<path d="M45.0714 40.9692C44.6121 40.9683 44.1629 41.1038 43.7807 41.3585C43.3985 41.6132 43.1005 41.9756 42.9245 42.3998C42.7486 42.8241 42.7025 43.291 42.7922 43.7415C42.882 44.1919 43.1034 44.6056 43.4285 44.93C43.7536 45.2545 44.1677 45.4751 44.6183 45.5639C45.069 45.6527 45.5358 45.6057 45.9597 45.4288C46.3836 45.252 46.7454 44.9533 46.9993 44.5705C47.2532 44.1878 47.3878 43.7383 47.3859 43.279C47.3834 42.6664 47.1386 42.0796 46.705 41.6468C46.2714 41.2141 45.6841 40.9705 45.0714 40.9692ZM45.0714 45.1419C44.7048 45.1373 44.3477 45.0242 44.0451 44.817C43.7425 44.6099 43.508 44.3178 43.3711 43.9776C43.2342 43.6374 43.201 43.2643 43.2758 42.9053C43.3505 42.5463 43.5297 42.2174 43.791 41.9601C44.0523 41.7027 44.3838 41.5285 44.7439 41.4592C45.104 41.3899 45.4766 41.4287 45.8146 41.5707C46.1527 41.7128 46.4412 41.9516 46.6438 42.2573C46.8464 42.563 46.954 42.9217 46.9531 43.2884C46.9557 43.5358 46.9087 43.7812 46.8149 44.0101C46.7211 44.239 46.5824 44.4469 46.4071 44.6214C46.2317 44.7958 46.0232 44.9335 45.7938 45.0261C45.5644 45.1187 45.3188 45.1645 45.0714 45.1607V45.1419Z" fill="#33372D"/>
<path d="M44.1399 42.0323H45.0807C45.65 42.0323 45.8852 42.2487 45.8852 42.7756C45.8852 43.2037 45.7346 43.4295 45.3677 43.5001L45.9792 44.5397H45.6311L45.0337 43.5236H44.4739V44.5397H44.1399V42.0323ZM45.0807 43.2178C45.4571 43.2178 45.5841 43.1002 45.5841 42.7756C45.5841 42.451 45.4524 42.3381 45.076 42.3381H44.4739V43.2225L45.0807 43.2178Z" fill="#33372D"/>
<path d="M62.8676 0H62.3595V54H62.8676V0Z" fill="#C9CACA"/>
</svg>
