<svg width="214" height="64" viewBox="0 0 214 64" fill="none" xmlns="http://www.w3.org/2000/svg">
<path d="M34.5768 36.8353H42.8482V10.5569H0V53.4322H26.2784V45.1338H33.1938V53.4485H42.8753V43.7507H34.5768V36.8353ZM33.1721 35.4522H24.8953V43.7724H9.70863V20.2384H33.1938L33.1721 35.4522Z" fill="white"/>
<path d="M104.837 53.2532C116.606 53.2532 126.147 43.7123 126.147 31.9431C126.147 20.1738 116.606 10.6329 104.837 10.6329C93.0677 10.6329 83.5268 20.1738 83.5268 31.9431C83.5268 43.7123 93.0677 53.2532 104.837 53.2532Z" fill="#526598"/>
<path d="M104.837 46.8586C113.075 46.8586 119.753 40.1807 119.753 31.9431C119.753 23.7055 113.075 17.0276 104.837 17.0276C96.5994 17.0276 89.9215 23.7055 89.9215 31.9431C89.9215 40.1807 96.5994 46.8586 104.837 46.8586Z" fill="#1C315D"/>
<path d="M104.837 40.5235C109.576 40.5235 113.417 36.6819 113.417 31.943C113.417 27.2042 109.576 23.3625 104.837 23.3625C100.098 23.3625 96.2565 27.2042 96.2565 31.943C96.2565 36.6819 100.098 40.5235 104.837 40.5235Z" fill="#E2464E"/>
<path d="M140.656 32.6156H136.165L135.33 34.9749H132.618L136.989 23.3571H139.989L144.328 34.9749H141.507L140.656 32.6156ZM137.017 30.2562H139.837L138.443 26.2426L137.017 30.2562Z" fill="white"/>
<path d="M145.57 34.9749V23.3571H148.059V34.9749H145.57Z" fill="white"/>
<path d="M150.017 34.9749V23.3571H152.507V34.9749H150.017Z" fill="white"/>
<path d="M165.795 34.9858V23.3734H168.382V32.5125H173.399V34.9858H165.795Z" fill="white"/>
<path d="M176.985 30.2833L178.899 29.9904C179.344 29.9254 179.49 29.7138 179.49 29.4481C179.49 28.9762 179.084 28.564 178.297 28.564C177.954 28.5414 177.616 28.6544 177.355 28.8785C177.095 29.1027 176.932 29.4201 176.903 29.7626L174.734 29.3179C174.831 28.1572 175.916 26.606 178.308 26.606C180.944 26.606 181.909 28.0813 181.909 29.7518V34.9858H179.68V34.0692C179.433 34.4443 179.091 34.7477 178.689 34.9486C178.288 35.1496 177.84 35.241 177.391 35.2136C175.602 35.2136 174.571 34.0366 174.571 32.7403C174.576 31.303 175.639 30.484 176.985 30.2833ZM179.49 31.7857V31.4278L177.95 31.6718C177.408 31.7532 177.033 31.9973 177.033 32.5722C177.033 33.0007 177.31 33.4075 177.999 33.4075C178.688 33.4075 179.49 33.0549 179.49 31.7857Z" fill="white"/>
<path d="M183.775 34.9858V23.3355H186.216V27.6149C186.51 27.2856 186.876 27.0276 187.284 26.8603C187.693 26.6931 188.134 26.6209 188.575 26.6494C190.935 26.6494 192.372 28.4501 192.372 30.8909C192.372 33.3316 190.745 35.1648 188.488 35.1648C188.045 35.1937 187.602 35.1093 187.201 34.9195C186.799 34.7297 186.453 34.4408 186.194 34.0801V34.9858H183.775ZM188.033 28.8949C187.067 28.8949 186.183 29.5295 186.183 30.9071C186.157 31.1651 186.186 31.4255 186.267 31.6717C186.349 31.9178 186.481 32.1441 186.655 32.3359C186.83 32.5276 187.042 32.6806 187.28 32.7849C187.517 32.8891 187.774 32.9424 188.033 32.9411C188.998 32.9411 189.866 32.2685 189.866 30.9071C189.866 29.5458 188.998 28.8949 188.033 28.8949Z" fill="white"/>
<path d="M201.37 32.6427C200.974 34.0529 199.683 35.2353 197.617 35.2353C197.048 35.2493 196.482 35.146 195.954 34.9316C195.427 34.7172 194.949 34.3965 194.551 33.9893C194.153 33.5822 193.843 33.0974 193.641 32.5652C193.439 32.0331 193.348 31.4649 193.375 30.8962C193.351 30.3454 193.437 29.7951 193.629 29.2784C193.822 28.7617 194.117 28.289 194.496 27.8886C194.875 27.4882 195.331 27.1683 195.836 26.9479C196.342 26.7275 196.886 26.6113 197.438 26.606C199.96 26.606 201.516 28.1626 201.516 30.7823C201.519 31.0399 201.503 31.2973 201.468 31.5525H195.8C195.848 32.0018 196.066 32.4154 196.411 32.7081C196.755 33.0008 197.198 33.1502 197.649 33.1254C198.003 33.1548 198.356 33.0636 198.652 32.8666C198.947 32.6697 199.167 32.3786 199.276 32.0407L201.37 32.6427ZM199.108 29.9308C199.099 29.7311 199.048 29.5356 198.959 29.3563C198.871 29.1771 198.746 29.0179 198.594 28.8887C198.441 28.7595 198.264 28.6631 198.072 28.6054C197.881 28.5476 197.68 28.5299 197.481 28.5531C197.085 28.53 196.695 28.6601 196.392 28.9166C196.089 29.173 195.897 29.5362 195.854 29.9308H199.108Z" fill="white"/>
<path d="M203.122 34.9858V23.3355H205.612V34.9858H203.122Z" fill="white"/>
<path d="M209.245 32.3281C209.255 32.4847 209.296 32.6377 209.366 32.7779C209.436 32.9181 209.534 33.0427 209.654 33.1441C209.773 33.2455 209.912 33.3215 210.062 33.3677C210.212 33.4139 210.37 33.4293 210.525 33.4129C211.165 33.4129 211.475 33.0712 211.475 32.7078C211.475 32.3444 211.279 32.1654 210.672 32.0353L209.728 31.7858C207.993 31.4115 207.304 30.4298 207.304 29.28C207.304 27.7884 208.616 26.5681 210.433 26.5681C212.793 26.5681 213.612 28.0433 213.688 28.9925L211.621 29.3667C211.599 29.0807 211.464 28.8151 211.247 28.6281C211.029 28.4411 210.747 28.3478 210.46 28.3688C210.356 28.3559 210.25 28.3641 210.149 28.3928C210.047 28.4214 209.953 28.47 209.87 28.5357C209.788 28.6013 209.72 28.6827 209.669 28.7751C209.619 28.8676 209.587 28.9691 209.576 29.0739C209.576 29.4156 209.853 29.6162 210.216 29.6813L211.301 29.8929C212.988 30.2346 213.807 31.2542 213.807 32.4475C213.807 33.8414 212.722 35.2028 210.553 35.2028C207.998 35.2028 207.179 33.5431 207.114 32.6427L209.245 32.3281Z" fill="white"/>
<path d="M162.123 30.2399V23.3463H159.075L154.194 29.9091V32.621H159.704V34.9858H162.14V32.621H164.06V30.2399H162.123ZM156.759 30.2399L159.688 26.3239V30.2399H156.759Z" fill="white"/>
<path d="M133.599 39.3194H134.337V39.7642C134.164 39.9046 133.947 39.9778 133.724 39.9703C133.597 39.9824 133.47 39.9667 133.349 39.9245C133.229 39.8823 133.12 39.8145 133.029 39.7257C132.937 39.637 132.866 39.5295 132.821 39.4106C132.775 39.2918 132.756 39.1644 132.764 39.0374C132.754 38.9053 132.771 38.7725 132.814 38.6474C132.858 38.5223 132.927 38.4077 133.017 38.3107C133.108 38.2138 133.217 38.1367 133.339 38.0844C133.46 38.0321 133.592 38.0057 133.724 38.0069C133.989 38.0102 134.244 38.1106 134.44 38.2889L134.473 38.3215L134.89 37.8984L134.879 37.8604C134.577 37.5664 134.173 37.4011 133.751 37.3994C133.534 37.3868 133.317 37.4202 133.114 37.4976C132.911 37.5749 132.726 37.6943 132.573 37.848C132.419 38.0017 132.3 38.1861 132.222 38.3892C132.145 38.5924 132.112 38.8096 132.124 39.0265C132.11 39.2405 132.143 39.455 132.221 39.6547C132.299 39.8545 132.42 40.0347 132.575 40.1827C132.73 40.3307 132.916 40.4427 133.119 40.511C133.322 40.5793 133.538 40.602 133.751 40.5778C133.981 40.5847 134.209 40.5394 134.418 40.4455C134.628 40.3515 134.813 40.2113 134.961 40.0354V40.0354V38.7174H133.599V39.3194Z" fill="white"/>
<path d="M137.054 37.4808H136.404V40.5235H138.568V39.9052H137.054V37.4808Z" fill="white"/>
<path d="M141.29 37.4211C141.078 37.4145 140.866 37.4526 140.669 37.5329C140.473 37.6132 140.295 37.7339 140.147 37.8873C140 38.0407 139.887 38.2233 139.815 38.4233C139.742 38.6233 139.713 38.8362 139.728 39.0483C139.728 39.4625 139.893 39.8599 140.186 40.1528C140.479 40.4457 140.876 40.6103 141.29 40.6103C141.705 40.6103 142.102 40.4457 142.395 40.1528C142.688 39.8599 142.852 39.4625 142.852 39.0483C142.858 38.8338 142.821 38.6204 142.744 38.4202C142.667 38.2201 142.55 38.0372 142.402 37.8821C142.258 37.7338 142.085 37.6165 141.894 37.5372C141.703 37.458 141.497 37.4185 141.29 37.4211ZM141.29 38.0286C141.41 38.0255 141.528 38.0476 141.639 38.0934C141.749 38.1392 141.848 38.2077 141.93 38.2944C142.023 38.3957 142.095 38.5146 142.142 38.644C142.188 38.7735 142.209 38.9109 142.202 39.0483C142.202 39.2899 142.106 39.5217 141.935 39.6926C141.764 39.8635 141.532 39.9595 141.29 39.9595C141.049 39.9595 140.817 39.8635 140.646 39.6926C140.475 39.5217 140.379 39.2899 140.379 39.0483C140.37 38.9112 140.389 38.7737 140.435 38.6442C140.481 38.5146 140.552 38.3956 140.645 38.2944C140.728 38.2072 140.828 38.1386 140.939 38.0928C141.051 38.047 141.17 38.0251 141.29 38.0286V38.0286Z" fill="white"/>
<path d="M146.427 38.9452C146.521 38.8891 146.598 38.8097 146.653 38.7147C146.707 38.6196 146.736 38.5122 146.736 38.4028C146.736 37.8279 146.351 37.497 145.651 37.497H144.208V40.5398H145.651C146.405 40.5398 146.801 40.2198 146.801 39.6232C146.802 39.4876 146.768 39.354 146.702 39.2353C146.637 39.1166 146.542 39.0167 146.427 38.9452V38.9452ZM145.673 38.6632H144.876V38.0882H145.673C145.998 38.0882 146.085 38.2889 146.085 38.3974C146.085 38.6143 145.863 38.6632 145.673 38.6632V38.6632ZM144.876 39.2489H145.673C145.879 39.2489 146.172 39.3737 146.172 39.6015C146.172 39.8293 145.76 39.9052 145.673 39.9052H144.876V39.2489Z" fill="white"/>
<path d="M149.236 37.4808L147.897 40.5235H148.607L148.862 39.9811H150.332L150.576 40.5235H151.297L149.931 37.4808H149.236ZM150.066 39.3466H149.133L149.6 38.2618L150.066 39.3466Z" fill="white"/>
<path d="M153.185 37.4808H152.529V40.5235H154.698V39.9052H153.185V37.4808Z" fill="white"/>
<path d="M159.449 37.4753H158.012V40.5181H158.668V39.6503H159.449C159.607 39.6582 159.764 39.6317 159.91 39.5727C160.056 39.5137 160.188 39.4236 160.295 39.3086C160.481 39.1041 160.582 38.8364 160.577 38.5601C160.578 38.4139 160.548 38.2692 160.491 38.1347C160.434 38.0002 160.35 37.8786 160.245 37.7773C160.139 37.676 160.014 37.597 159.878 37.5451C159.741 37.4932 159.595 37.4695 159.449 37.4753ZM159.813 38.9018C159.766 38.9503 159.709 38.9883 159.647 39.0136C159.584 39.0388 159.517 39.0506 159.449 39.0482H158.668V38.1099H159.449C159.512 38.1062 159.575 38.1155 159.635 38.1374C159.694 38.1593 159.748 38.1932 159.793 38.2371C159.839 38.2809 159.874 38.3337 159.898 38.3921C159.922 38.4506 159.934 38.5133 159.932 38.5764C159.938 38.6937 159.901 38.8093 159.829 38.9018H159.813Z" fill="white"/>
<path d="M162.975 37.4808L161.614 40.5235H162.324L162.579 39.9811H164.049L164.293 40.5235H165.009L163.626 37.4808H162.975ZM163.778 39.3466H162.845L163.311 38.2618L163.778 39.3466Z" fill="white"/>
<path d="M168.274 39.6828C168.085 39.8624 167.835 39.9632 167.574 39.9649C167.447 39.9752 167.318 39.958 167.198 39.9145C167.078 39.871 166.968 39.8022 166.877 39.7128C166.785 39.6234 166.714 39.5153 166.668 39.396C166.621 39.2767 166.601 39.1489 166.609 39.0211C166.603 38.888 166.624 38.755 166.67 38.6301C166.717 38.5053 166.788 38.3911 166.88 38.2943C166.972 38.2063 167.081 38.1379 167.2 38.0931C167.32 38.0484 167.447 38.0283 167.574 38.034C167.824 38.0295 168.065 38.1229 168.247 38.2943L168.279 38.3269L168.724 37.8984L168.686 37.8658C168.382 37.5693 167.974 37.4034 167.55 37.4034C167.125 37.4034 166.717 37.5693 166.414 37.8658C166.117 38.1764 165.955 38.5917 165.963 39.0211C165.952 39.235 165.988 39.4487 166.066 39.6479C166.145 39.847 166.266 40.027 166.42 40.1756C166.574 40.3241 166.758 40.4379 166.96 40.5092C167.162 40.5804 167.377 40.6075 167.591 40.5886C168.018 40.5955 168.431 40.4337 168.74 40.1384L168.778 40.1005L168.328 39.6449L168.274 39.6828Z" fill="white"/>
<path d="M172.591 37.4862L171.745 37.4808L170.698 38.6415V37.4808H170.042V40.5235H170.698V39.2977L171.859 40.5235H172.716L171.219 38.956L172.591 37.4862Z" fill="white"/>
<path d="M174.918 37.4808L173.551 40.5235H174.267L174.517 39.9811H175.987L176.236 40.5235H176.952L175.591 37.4808H174.918ZM175.721 39.3466H174.788L175.254 38.2618L175.721 39.3466Z" fill="white"/>
<path d="M179.355 39.3194H180.109V39.7642C179.936 39.9046 179.718 39.9778 179.496 39.9703C179.369 39.9824 179.241 39.9667 179.121 39.9245C179.001 39.8823 178.891 39.8145 178.8 39.7257C178.709 39.637 178.638 39.5295 178.592 39.4106C178.547 39.2918 178.527 39.1644 178.536 39.0374C178.525 38.9053 178.542 38.7725 178.586 38.6474C178.629 38.5223 178.699 38.4077 178.789 38.3107C178.879 38.2138 178.989 38.1367 179.11 38.0844C179.232 38.0321 179.363 38.0057 179.496 38.0069C179.76 38.0085 180.013 38.1091 180.206 38.2889L180.244 38.3215L180.662 37.8984L180.624 37.8604C180.322 37.5664 179.917 37.4011 179.496 37.3994C179.279 37.3868 179.062 37.4202 178.858 37.4976C178.655 37.5749 178.471 37.6943 178.317 37.848C178.164 38.0017 178.044 38.1861 177.967 38.3892C177.889 38.5924 177.856 38.8096 177.869 39.0265C177.855 39.2405 177.888 39.455 177.966 39.6547C178.043 39.8545 178.164 40.0347 178.319 40.1827C178.475 40.3307 178.66 40.4427 178.864 40.511C179.067 40.5793 179.283 40.602 179.496 40.5778C179.725 40.5847 179.953 40.5394 180.163 40.4455C180.372 40.3515 180.558 40.2113 180.705 40.0354V38.7174H179.355V39.3194Z" fill="white"/>
<path d="M182.837 37.4808H182.186V40.5235H182.837V37.4808Z" fill="white"/>
<path d="M186.281 39.2055L184.914 37.4808H184.388V40.5235H185.044V38.636L186.514 40.5235H186.937V37.4753H186.281V39.2055Z" fill="white"/>
<path d="M189.779 39.3194H190.533V39.7642C190.36 39.9029 190.143 39.9759 189.92 39.9703C189.794 39.9824 189.666 39.9667 189.546 39.9245C189.426 39.8823 189.316 39.8145 189.225 39.7257C189.133 39.637 189.062 39.5295 189.017 39.4106C188.971 39.2918 188.952 39.1644 188.96 39.0374C188.95 38.9053 188.967 38.7725 189.01 38.6474C189.054 38.5223 189.123 38.4077 189.213 38.3107C189.304 38.2138 189.413 38.1367 189.535 38.0844C189.657 38.0321 189.788 38.0057 189.92 38.0069C190.184 38.0115 190.436 38.1118 190.631 38.2889L190.669 38.3215L191.081 37.8984L191.048 37.8604C190.746 37.5664 190.342 37.4011 189.92 37.3994C189.703 37.3868 189.486 37.4202 189.283 37.4976C189.08 37.5749 188.895 37.6943 188.742 37.848C188.588 38.0017 188.469 38.1861 188.391 38.3892C188.314 38.5924 188.281 38.8096 188.293 39.0265C188.279 39.2405 188.312 39.455 188.39 39.6547C188.468 39.8545 188.589 40.0347 188.744 40.1827C188.899 40.3307 189.085 40.4427 189.288 40.511C189.492 40.5793 189.707 40.602 189.92 40.5778C190.15 40.5847 190.378 40.5394 190.587 40.4455C190.797 40.3515 190.982 40.2113 191.13 40.0354V40.0354V38.7174H189.768L189.779 39.3194Z" fill="white"/>
<path d="M195.87 39.3194H196.624V39.7642C196.451 39.9029 196.233 39.9759 196.011 39.9703C195.885 39.9824 195.757 39.9667 195.637 39.9245C195.516 39.8823 195.407 39.8145 195.316 39.7257C195.224 39.637 195.153 39.5295 195.108 39.4106C195.062 39.2918 195.043 39.1644 195.051 39.0374C195.04 38.9052 195.056 38.772 195.1 38.6465C195.143 38.5211 195.212 38.4061 195.302 38.309C195.393 38.2118 195.503 38.1348 195.625 38.0827C195.747 38.0307 195.879 38.0049 196.011 38.0069C196.271 38.0156 196.52 38.1177 196.711 38.2943L196.749 38.3269L197.161 37.9038L197.129 37.8659C196.826 37.5718 196.422 37.4066 196 37.4048C195.783 37.3922 195.566 37.4257 195.363 37.503C195.16 37.5803 194.976 37.6997 194.822 37.8534C194.668 38.0071 194.549 38.1916 194.471 38.3947C194.394 38.5978 194.361 38.815 194.373 39.032C194.359 39.2459 194.392 39.4604 194.47 39.6602C194.548 39.8599 194.669 40.0402 194.824 40.1881C194.979 40.3361 195.165 40.4482 195.368 40.5164C195.572 40.5847 195.787 40.6075 196 40.5832C196.23 40.5901 196.458 40.5449 196.667 40.4509C196.877 40.357 197.062 40.2168 197.21 40.0408V38.7174H195.849L195.87 39.3194Z" fill="white"/>
<path d="M201.197 38.5058C201.196 38.3663 201.167 38.2283 201.112 38.1002C201.056 37.9722 200.975 37.8567 200.874 37.7608C200.772 37.665 200.653 37.5907 200.522 37.5426C200.391 37.4944 200.251 37.4734 200.112 37.4807H198.664V40.5289H199.32V39.5418H199.781L200.437 40.5235H201.262L200.524 39.4387C200.725 39.3824 200.901 39.2595 201.024 39.09C201.146 38.9205 201.207 38.7145 201.197 38.5058V38.5058ZM200.54 38.5058C200.542 38.5647 200.531 38.6233 200.509 38.6777C200.486 38.7321 200.452 38.781 200.409 38.8211C200.366 38.8612 200.314 38.8915 200.258 38.9101C200.202 38.9287 200.143 38.9351 200.085 38.9289H199.293V38.0991H200.085C200.143 38.0929 200.202 38.0992 200.257 38.1174C200.313 38.1357 200.364 38.1656 200.407 38.2051C200.45 38.2446 200.484 38.2928 200.507 38.3465C200.53 38.4002 200.541 38.4583 200.54 38.5167V38.5058Z" fill="white"/>
<path d="M203.99 37.4211C203.777 37.4145 203.566 37.4526 203.369 37.5329C203.172 37.6132 202.994 37.7339 202.847 37.8873C202.7 38.0407 202.586 38.2233 202.514 38.4233C202.442 38.6233 202.412 38.8362 202.428 39.0483C202.415 39.2608 202.446 39.4736 202.519 39.6737C202.592 39.8738 202.704 40.0569 202.85 40.2118C202.996 40.3667 203.173 40.4901 203.368 40.5745C203.564 40.6588 203.774 40.7023 203.987 40.7023C204.2 40.7023 204.411 40.6588 204.606 40.5745C204.801 40.4901 204.978 40.3667 205.124 40.2118C205.27 40.0569 205.383 39.8738 205.455 39.6737C205.528 39.4736 205.559 39.2608 205.546 39.0483C205.553 38.8342 205.517 38.621 205.44 38.4209C205.364 38.2208 205.249 38.0377 205.102 37.8821C204.957 37.7343 204.784 37.6173 204.593 37.5381C204.402 37.4589 204.197 37.4191 203.99 37.4211ZM203.99 38.0286C204.107 38.0234 204.225 38.0424 204.335 38.0844C204.445 38.1263 204.545 38.1904 204.63 38.2727C204.813 38.4801 204.91 38.7499 204.901 39.0266C204.911 39.1525 204.894 39.2791 204.853 39.3984C204.811 39.5177 204.745 39.6271 204.66 39.7198C204.574 39.8125 204.47 39.8864 204.354 39.937C204.238 39.9875 204.113 40.0137 203.987 40.0137C203.861 40.0137 203.736 39.9875 203.62 39.937C203.504 39.8864 203.4 39.8125 203.314 39.7198C203.229 39.6271 203.163 39.5177 203.121 39.3984C203.08 39.2791 203.063 39.1525 203.073 39.0266C203.067 38.8893 203.087 38.752 203.134 38.6226C203.18 38.4933 203.252 38.3744 203.344 38.2727C203.429 38.1895 203.53 38.1248 203.641 38.0828C203.753 38.0408 203.871 38.0223 203.99 38.0286V38.0286Z" fill="white"/>
<path d="M208.969 39.2218C208.969 39.7045 208.73 39.9811 208.307 39.9811C208.208 39.9886 208.108 39.9737 208.015 39.9375C207.922 39.9012 207.838 39.8446 207.77 39.7717C207.702 39.6989 207.651 39.6116 207.621 39.5165C207.591 39.4213 207.583 39.3206 207.597 39.2218V37.4862H206.946V39.2218C206.932 39.4036 206.958 39.5863 207.021 39.7573C207.084 39.9283 207.183 40.0837 207.312 40.2129C207.441 40.3421 207.596 40.442 207.767 40.5059C207.937 40.5698 208.12 40.5962 208.302 40.5832C208.482 40.595 208.662 40.5675 208.831 40.5027C208.999 40.4379 209.152 40.3373 209.278 40.2079C209.403 40.0785 209.5 39.9233 209.56 39.753C209.62 39.5828 209.642 39.4015 209.625 39.2218V37.4862H208.969V39.2218Z" fill="white"/>
<path d="M212.592 37.4753H211.155V40.5181H211.811V39.6503H212.592C212.738 39.6561 212.884 39.6324 213.02 39.5805C213.157 39.5286 213.282 39.4497 213.387 39.3483C213.492 39.247 213.576 39.1254 213.633 38.9909C213.691 38.8564 213.72 38.7117 213.72 38.5655C213.721 38.4189 213.692 38.2736 213.635 38.1385C213.578 38.0033 213.495 37.8811 213.389 37.7792C213.284 37.6773 213.159 37.5978 213.022 37.5456C212.885 37.4934 212.738 37.4695 212.592 37.4753ZM211.811 38.1099H212.592C212.654 38.1069 212.717 38.1169 212.775 38.1391C212.834 38.1613 212.887 38.1954 212.932 38.2392C212.977 38.2829 213.012 38.3355 213.036 38.3935C213.059 38.4515 213.071 38.5138 213.069 38.5764C213.071 38.6958 213.028 38.8116 212.95 38.9018C212.903 38.9496 212.848 38.9872 212.786 39.0124C212.725 39.0376 212.658 39.0498 212.592 39.0482H211.811V38.1099Z" fill="white"/>
<path d="M51.9657 48.106C51.4361 48.1049 50.9182 48.2611 50.4775 48.5548C50.0368 48.8484 49.6933 49.2663 49.4904 49.7554C49.2875 50.2446 49.2344 50.7829 49.3378 51.3023C49.4413 51.8216 49.6966 52.2986 50.0714 52.6726C50.4462 53.0467 50.9237 53.301 51.4433 53.4034C51.9628 53.5058 52.5011 53.4516 52.9898 53.2477C53.4785 53.0439 53.8957 52.6994 54.1884 52.2582C54.4812 51.8169 54.6363 51.2986 54.6342 50.7691C54.6313 50.0628 54.3491 49.3862 53.8491 48.8873C53.3491 48.3883 52.672 48.1074 51.9657 48.106ZM51.9657 52.9169C51.5429 52.9116 51.1312 52.7813 50.7823 52.5424C50.4335 52.3035 50.1631 51.9667 50.0053 51.5745C49.8474 51.1823 49.8092 50.7521 49.8953 50.3382C49.9815 49.9243 50.1882 49.5451 50.4894 49.2484C50.7906 48.9517 51.1728 48.7508 51.588 48.6709C52.0032 48.591 52.4327 48.6357 52.8225 48.7995C53.2123 48.9632 53.545 49.2387 53.7786 49.5911C54.0121 49.9435 54.1362 50.3572 54.1352 50.7799C54.1381 51.0652 54.0839 51.3481 53.9758 51.612C53.8677 51.876 53.7078 52.1156 53.5056 52.3168C53.3034 52.5179 53.063 52.6766 52.7985 52.7834C52.534 52.8902 52.2509 52.943 51.9657 52.9386V52.9169Z" fill="white"/>
<path d="M50.8917 49.3318H51.9765C52.6328 49.3318 52.904 49.5813 52.904 50.1888C52.904 50.6823 52.7304 50.9427 52.3073 51.024L53.0124 52.2227H52.6111L51.9222 51.0511H51.2768V52.2227H50.8917V49.3318ZM51.9765 50.6986C52.4104 50.6986 52.5568 50.563 52.5568 50.1888C52.5568 49.8145 52.405 49.6843 51.9711 49.6843H51.2768V50.704L51.9765 50.6986Z" fill="white"/>
<path d="M64.5868 0.869995H64.001V63.13H64.5868V0.869995Z" fill="#C9CACA"/>
</svg>
