<?xml version="1.0" standalone="no"?>
<!DOCTYPE svg PUBLIC "-//W3C//DTD SVG 20010904//EN"
 "http://www.w3.org/TR/2001/REC-SVG-20010904/DTD/svg10.dtd">
<svg version="1.0" xmlns="http://www.w3.org/2000/svg"
 width="1224.000000pt" height="1224.000000pt" viewBox="0 0 1224.000000 1224.000000"
 preserveAspectRatio="xMidYMid meet">
<metadata>
Created by potrace 1.14, written by Peter Selinger 2001-2017
</metadata>
<g transform="translate(0.000000,1224.000000) scale(0.100000,-0.100000)"
fill="#000000" stroke="none">
<path d="M2040 6125 l0 -4075 2500 0 2500 0 0 785 0 785 655 0 655 0 0 -785 0
-785 920 0 920 0 0 910 0 910 -790 0 -790 0 0 665 0 665 790 0 790 0 0 2500 0
2500 -4075 0 -4075 0 0 -4075z m6300 780 l0 -1465 -775 0 -775 0 -2 -777 -3
-778 -1460 0 -1460 0 -3 2243 -2 2242 2240 0 2240 0 0 -1465z"/>
</g>
</svg>
